HIERARCHY
ROOT Hips
{
	OFFSET 0.00 0.00 0.00
	CHANNELS 6 Xposition Yposition Zposition Xrotation Yrotation Zrotation
	JOINT LeftUpLeg
	{
		OFFSET 3.34807 0.00000 0.00000
		CHANNELS 3 Xrotation Yrotation Zrotation
		JOINT LeftLeg
		{
			OFFSET 0.00000 -16.98552 0.00000
			CHANNELS 3 Xrotation Yrotation Zrotation
			JOINT LeftFoot
			{
				OFFSET 0.00000 -16.83686 0.00000
				CHANNELS 3 Xrotation Yrotation Zrotation
				JOINT LeftToeBase
				{
					OFFSET 0.00000 -1.59599 5.95633
					CHANNELS 3 Xrotation Yrotation Zrotation
					End Site
					{
						OFFSET 0.00000 0.00000 2.95275
					}
				}
			}
		}
	}
	JOINT RightUpLeg
	{
		OFFSET -3.34807 0.00000 0.00000
		CHANNELS 3 Xrotation Yrotation Zrotation
		JOINT RightLeg
		{
			OFFSET 0.00000 -16.98552 0.00000
			CHANNELS 3 Xrotation Yrotation Zrotation
			JOINT RightFoot
			{
				OFFSET 0.00000 -16.83686 0.00000
				CHANNELS 3 Xrotation Yrotation Zrotation
				JOINT RightToeBase
				{
					OFFSET 0.00000 -1.59599 5.95633
					CHANNELS 3 Xrotation Yrotation Zrotation
					End Site
					{
						OFFSET 0.00000 0.00000 2.95275
					}
				}
			}
		}
	}
	JOINT Spine
	{
		OFFSET 0.00000 0.03937 0.00000
		CHANNELS 3 Xrotation Yrotation Zrotation
		JOINT Spine1
		{
			OFFSET 0.00000 7.93124 0.00000
			CHANNELS 3 Xrotation Yrotation Zrotation
			JOINT Neck
			{
				OFFSET 0.00000 8.48368 0.00000
				CHANNELS 3 Xrotation Yrotation Zrotation
				JOINT Head
				{
					OFFSET 0.00000 6.65077 0.00000
					CHANNELS 3 Xrotation Yrotation Zrotation
					End Site
					{
						OFFSET 0.00000 4.52755 0.00000
					}
				}
			}
			JOINT LeftShoulder
			{
				OFFSET 0.00000 8.48368 0.00000
				CHANNELS 3 Xrotation Yrotation Zrotation
				JOINT LeftArm
				{
					OFFSET 7.74502 -0.00003 0.00000
					CHANNELS 3 Xrotation Yrotation Zrotation
					JOINT LeftForeArm
					{
						OFFSET 12.49824 -0.00005 0.00000
						CHANNELS 3 Xrotation Yrotation Zrotation
						JOINT LeftHand
						{
							OFFSET 9.88337 -0.00004 0.00000
							CHANNELS 3 Xrotation Yrotation Zrotation
							JOINT LeftHandThumb
							{
								OFFSET 0.00000 0.00000 0.00000
								CHANNELS 3 Xrotation Yrotation Zrotation
								End Site
								{
									OFFSET 0.00000 0.00000 3.93700
								}
							}
							JOINT L_Wrist_End
							{
								OFFSET 3.93700 -0.00001 0.00000
								CHANNELS 3 Xrotation Yrotation Zrotation
							}
						}
					}
				}
			}
			JOINT RightShoulder
			{
				OFFSET 0.00000 8.48368 0.00000
				CHANNELS 3 Xrotation Yrotation Zrotation
				JOINT RightArm
				{
					OFFSET -7.74502 -0.00003 0.00000
					CHANNELS 3 Xrotation Yrotation Zrotation
					JOINT RightForeArm
					{
						OFFSET -12.49824 -0.00005 0.00000
						CHANNELS 3 Xrotation Yrotation Zrotation
						JOINT RightHand
						{
							OFFSET -9.88337 -0.00004 0.00000
							CHANNELS 3 Xrotation Yrotation Zrotation
							JOINT RightHandThumb
							{
								OFFSET 0.00000 0.00000 0.00000
								CHANNELS 3 Xrotation Yrotation Zrotation
								End Site
								{
									OFFSET 0.00000 0.00000 3.93700
								}
							}
							JOINT R_Wrist_End
							{
								OFFSET -5.39369 -0.00002 0.00000
								CHANNELS 3 Xrotation Yrotation Zrotation
							}
						}
					}
				}
			}
		}
	}
}
MOTION
Frames: 17
Frame Time: 0.033332
 2.3117 38.5049 1.6097 -1.8653 -3.6079 -5.5475 2.6484 20.7316 9.6743 11.8340 -0.0000 0.0000 16.4878 -15.8978 -15.3054 -22.3457 0.0000 0.0000 5.7622 -8.0822 0.8604 15.8416 -0.0000 0.0000 5.3648 -2.2000 28.8735 -10.1926 0.0000 -0.0000 -3.8497 -2.3491 1.4336 12.3073 -6.3434 0.3697 -14.0954 7.9197 3.7318 -8.2911 -8.6831 -1.2898 -8.4387 20.8801 22.9683 -2.8532 -50.0726 -95.3388 -0.0001 -29.8112 -0.0000 -17.3849 -33.0235 18.6186 -0.0000 0.0000 -0.0000 -0.0000 0.0000 -0.0000 17.6804 -13.5108 -8.4697 -37.0334 40.8967 98.2618 -0.0000 6.2108 0.0000 81.5416 -71.2042 -107.9750 -0.0000 0.0000 -0.0000 -0.0000 0.0000 -0.0000
 2.1545 38.4865 1.5855 -1.8323 -3.6913 -5.5378 2.6562 19.4650 9.7758 12.0267 -0.0000 0.0000 16.2042 -14.9724 -15.4519 -22.5439 0.0000 0.0000 5.8121 -7.9307 0.9722 14.8869 -0.0000 0.0000 9.8552 -0.5439 27.0115 -9.2722 0.0000 0.0000 -3.8982 -2.2220 1.5649 12.3606 -6.1985 0.4409 -14.0495 7.9627 3.6506 -8.2796 -8.5201 -1.3103 -8.5266 21.0572 22.7720 -2.3285 -50.0022 -94.7535 -0.0001 -30.2473 -0.0000 -17.6511 -33.4034 19.3407 -0.0000 -0.0000 0.0000 -0.0000 -0.0000 0.0000 17.4666 -13.3468 -8.4597 -36.8753 41.0243 97.6705 -0.0000 5.9912 0.0000 81.0000 -71.5401 -108.3876 -0.0000 0.0000 -0.0000 -0.0000 0.0000 -0.0000
 1.9733 38.3182 1.5649 -1.8482 -3.7241 -5.4856 2.7014 17.9691 9.7979 12.8088 -0.0000 0.0000 13.7402 -13.3165 -16.3741 -20.7427 0.0000 -0.0000 5.9266 -8.1781 1.2209 14.1626 -0.0000 0.0000 16.0852 -0.2148 28.6838 -11.4597 0.0000 -0.0000 -3.9680 -2.1070 1.7162 12.4184 -6.0696 0.5006 -13.9862 7.9841 3.5365 -8.0619 -8.3014 -1.4035 -8.4047 21.3170 22.4687 -2.0858 -49.5809 -94.2590 -0.0001 -30.2691 -0.0000 -17.9848 -33.6674 19.7979 -0.0000 -0.0000 0.0000 -0.0000 -0.0000 0.0000 17.4744 -13.2507 -8.4094 -37.1343 40.7274 97.3337 -0.0000 5.3541 0.0000 81.2748 -71.8570 -108.1567 -0.0000 0.0000 -0.0000 -0.0000 0.0000 -0.0000
 1.7562 38.0019 1.5368 -1.9620 -3.5229 -5.3371 2.5866 16.7976 9.8942 14.2128 -0.0000 0.0000 9.7540 -11.8645 -17.4219 -18.0616 0.0000 0.0000 6.0828 -8.8556 1.5231 14.4251 -0.0000 0.0000 15.8052 -0.0780 25.8920 -19.3022 0.0000 0.0000 -3.9930 -2.0163 1.8163 12.5399 -5.9770 0.5178 -13.7658 7.9306 3.3656 -8.0776 -8.1523 -1.4976 -8.3574 21.4122 22.3511 -2.0879 -49.1691 -94.0189 -0.0001 -30.1367 -0.0000 -17.7583 -33.8132 20.1330 -0.0000 -0.0000 0.0000 -0.0000 -0.0000 0.0000 17.4039 -13.2011 -8.4567 -37.4835 40.3384 97.3225 -0.0000 4.7051 0.0000 81.8737 -72.1132 -107.7977 -0.0000 0.0000 -0.0000 -0.0000 0.0000 -0.0000
 1.5343 37.6017 1.5105 -2.2404 -3.0492 -4.6167 3.0776 14.5091 9.2884 15.4586 -0.0000 0.0000 5.0599 -9.8333 -18.0770 -13.5469 0.0000 -0.0000 6.2084 -9.1848 1.3439 16.1529 -0.0000 0.0000 10.3308 -1.4329 25.4577 -14.2945 -0.0000 -0.0000 -3.9389 -1.9190 1.6412 12.6830 -5.9780 0.1523 -13.1473 7.8876 3.1875 -8.7193 -8.2030 -1.5396 -8.3846 21.4026 22.2436 -2.2152 -48.8650 -93.7466 -0.0001 -29.7364 -0.0000 -16.5693 -34.3842 20.6617 -0.0000 0.0000 -0.0000 -0.0000 0.0000 -0.0000 17.4021 -13.0081 -8.3108 -37.7496 40.0797 97.3584 -0.0000 4.0989 0.0000 81.6769 -72.4487 -108.0380 -0.0000 0.0000 -0.0000 -0.0000 0.0000 -0.0000
 1.2942 37.1707 1.4789 -2.3879 -2.5297 -4.4171 3.3299 12.4757 9.3139 16.6082 -0.0000 0.0000 0.0996 -7.9893 -19.4558 -9.3370 0.0000 0.0000 6.3157 -8.3445 1.9512 17.4046 -0.0000 0.0000 5.5499 -3.7666 25.0364 -11.9145 0.0000 -0.0000 -3.9348 -1.8552 1.7855 12.8535 -5.9312 0.1196 -13.0497 7.5961 2.9089 -8.5985 -8.1633 -1.4599 -8.4494 21.5107 22.0497 -2.5211 -48.2836 -93.6721 -0.0001 -29.1767 -0.0000 -14.8115 -34.9375 21.6672 -0.0000 0.0000 -0.0000 -0.0000 0.0000 -0.0000 17.3882 -12.8210 -8.2590 -38.0758 40.1651 97.4993 -0.0000 3.6053 0.0000 81.2336 -73.1361 -108.5893 -0.0000 0.0000 -0.0000 -0.0000 0.0000 -0.0000
 1.1086 36.7964 1.4520 -2.4016 -1.9300 -3.6969 3.0152 12.1803 9.1150 17.8991 -0.0000 0.0000 -3.7091 -7.8822 -20.9093 -5.5455 0.0000 0.0000 6.2710 -8.4438 1.6209 18.4356 -0.0000 0.0000 1.3324 -4.3565 25.1700 -9.2779 0.0000 0.0000 -4.1362 -1.8372 1.6004 13.1018 -5.9707 -0.1327 -12.6652 7.4490 2.7641 -9.2284 -8.3377 -1.5819 -8.5820 21.6365 21.7814 -2.8034 -47.2203 -93.6965 -0.0001 -28.4056 -0.0000 -13.2263 -35.4911 22.8504 -0.0000 0.0000 -0.0000 -0.0000 0.0000 -0.0000 17.6332 -12.5067 -7.8276 -38.4623 40.4775 97.3102 -0.0000 3.1793 0.0000 82.1556 -73.0772 -108.4524 -0.0000 0.0000 -0.0000 -0.0000 0.0000 -0.0000
 0.9333 36.5919 1.4455 -2.3714 -0.9591 -3.0363 3.0952 11.4402 9.1258 18.0237 -0.0000 0.0000 -6.0871 -8.5892 -23.3373 -2.0771 0.0000 0.0000 6.5196 -9.1352 1.2303 18.5461 -0.0000 0.0000 -0.7659 -3.9745 25.5077 -8.3215 -0.0000 -0.0000 -4.3663 -1.8541 1.5127 13.2774 -6.0837 -0.4848 -12.7005 7.0576 2.5861 -9.1806 -8.5526 -1.7550 -8.5328 21.5674 21.5762 -3.4388 -46.1551 -93.9541 -0.0001 -27.2101 -0.0000 -12.6261 -35.9641 23.7970 -0.0000 0.0000 -0.0000 -0.0000 0.0000 -0.0000 18.1544 -12.3726 -7.2280 -38.9990 40.5932 97.3461 -0.0000 2.4634 0.0000 82.4961 -73.8224 -108.7181 -0.0000 0.0000 -0.0000 -0.0000 0.0000 -0.0000
 0.7942 36.5607 1.4659 -2.2294 0.2653 -2.9111 3.6514 9.9974 9.5229 16.7972 -0.0000 0.0000 -7.1481 -9.1986 -26.4154 0.4178 0.0000 0.0000 7.0139 -10.4781 1.2444 17.8444 -0.0000 0.0000 -0.7397 -2.7209 25.8896 -8.9360 0.0000 0.0000 -4.5077 -2.0048 1.7031 13.0291 -6.2430 -0.4872 -12.8883 6.7664 2.7297 -8.6930 -8.6783 -2.6696 -8.6540 21.3612 21.8521 -4.1206 -45.5499 -94.8356 -0.0001 -25.9792 -0.0000 -12.3625 -35.8987 24.0244 -0.0000 -0.0000 0.0000 -0.0000 -0.0000 0.0000 18.2407 -12.4704 -7.3222 -39.0544 40.8325 97.9062 -0.0000 1.9218 0.0000 83.2694 -74.1024 -108.5033 -0.0000 0.0000 -0.0000 -0.0000 0.0000 -0.0000
 0.7067 36.7281 1.5172 -2.0497 1.0094 -2.8682 4.1267 9.8038 9.9534 15.3751 -0.0000 0.0000 -7.3971 -10.9665 -28.8566 0.9960 -0.0000 -0.0000 7.4087 -11.0023 1.3519 16.7875 -0.0000 0.0000 1.1896 -2.0134 26.1143 -10.3993 0.0000 -0.0000 -4.6779 -2.0490 1.7830 12.6715 -6.2671 -0.4354 -13.1728 6.5425 2.8717 -8.0775 -8.8930 -3.0044 -8.8341 21.2415 22.1780 -4.2041 -45.3789 -95.4083 -0.0001 -25.5854 -0.0000 -12.0364 -35.2975 23.4836 -0.0000 0.0000 -0.0000 -0.0000 0.0000 -0.0000 18.1864 -12.4809 -7.2866 -38.4692 41.4186 98.0233 -0.0000 1.9834 0.0000 84.6245 -73.5204 -107.5700 -0.0000 0.0000 -0.0000 -0.0000 0.0000 -0.0000
 0.6964 37.0718 1.5649 -1.8392 1.4409 -2.6824 4.8516 8.5540 9.7130 14.3578 -0.0000 0.0000 -9.1798 -10.8772 -28.2780 -1.0263 0.0000 0.0000 7.4804 -11.4290 1.2425 15.7418 -0.0000 0.0000 4.6417 -1.6700 26.3636 -11.8899 0.0000 -0.0000 -4.8461 -2.0977 1.6899 12.4127 -6.2956 -0.4151 -13.5505 6.4659 3.0621 -7.7311 -9.1861 -3.0647 -8.6395 21.2909 22.2637 -4.0990 -45.7347 -95.5776 -0.0001 -26.0957 -0.0000 -11.7591 -35.1595 23.0532 -0.0000 -0.0000 0.0000 -0.0000 -0.0000 0.0000 18.4192 -12.5981 -7.0707 -38.1484 41.9345 97.9005 -0.0000 2.3100 0.0000 85.8618 -72.9226 -106.8174 -0.0000 0.0000 -0.0000 -0.0000 0.0000 -0.0000
 0.7459 37.5336 1.5851 -1.8281 1.4076 -2.3845 5.3539 8.1878 9.1181 14.4938 -0.0000 0.0000 -9.4802 -8.1521 -25.6409 -3.0942 0.0000 0.0000 7.4637 -11.9890 0.8281 14.6298 -0.0000 0.0000 9.3487 -0.9989 26.0898 -14.8842 0.0000 0.0000 -4.9166 -2.0624 1.5062 12.5286 -6.2572 -0.4539 -13.8211 6.5627 3.2780 -7.9533 -9.4277 -3.1322 -8.5788 21.1762 22.4989 -3.6591 -46.3181 -95.6700 -0.0001 -27.1878 -0.0000 -12.0727 -35.3456 22.7766 -0.0000 -0.0000 0.0000 -0.0000 -0.0000 0.0000 18.3521 -12.7485 -7.1766 -37.9801 41.8177 98.0608 -0.0000 2.6143 0.0000 85.7333 -72.9710 -107.1177 -0.0000 0.0000 -0.0000 -0.0000 0.0000 -0.0000
 0.8236 38.0223 1.5680 -1.8369 0.9838 -2.3262 5.3645 9.5376 8.8088 15.0267 -0.0000 0.0000 -7.9038 -5.8654 -20.7483 -4.2916 0.0000 -0.0000 7.2521 -12.6332 0.4894 13.5271 -0.0000 0.0000 14.6474 0.0848 25.7071 -17.5177 0.0000 -0.0000 -4.8587 -2.0366 1.4410 12.6755 -6.2245 -0.4356 -13.7212 6.8190 3.3512 -8.6498 -9.4795 -2.9507 -8.4018 21.1423 22.8675 -3.3678 -46.8256 -95.8631 -0.0001 -28.3555 -0.0000 -12.9807 -35.4875 22.3167 -0.0000 0.0000 -0.0000 -0.0000 0.0000 -0.0000 18.3238 -12.7908 -7.5436 -38.1247 41.7201 98.4463 -0.0000 3.0921 0.0000 85.1673 -73.0454 -106.9418 -0.0000 0.0000 -0.0000 -0.0000 0.0000 -0.0000
 0.9329 38.4463 1.5244 -1.7933 0.3329 -2.2462 5.4627 11.4618 8.4442 14.7257 -0.0000 0.0000 -6.7006 -3.7761 -18.9808 -4.4672 0.0000 0.0000 6.6479 -13.1961 0.0232 12.8734 -0.0000 0.0000 19.7062 1.1363 24.6699 -21.3365 0.0000 0.0000 -4.8591 -1.9827 1.2759 13.0238 -6.1477 -0.3904 -13.9382 7.0460 3.5086 -8.7976 -9.4533 -2.9144 -8.4778 21.0177 23.3452 -3.0750 -47.2560 -96.1045 -0.0001 -29.4488 -0.0000 -13.9627 -35.2019 21.4288 -0.0000 -0.0000 0.0000 -0.0000 -0.0000 0.0000 17.9989 -12.8189 -7.9937 -37.9944 41.7323 98.6628 -0.0000 4.0923 0.0000 84.6897 -72.6927 -106.6222 -0.0000 0.0000 -0.0000 -0.0000 0.0000 -0.0000
 1.0670 38.7306 1.4549 -1.7212 -0.1895 -2.0919 5.3013 13.3164 8.1310 14.1804 -0.0000 0.0000 -4.6587 -3.4634 -19.9489 -4.7001 0.0000 0.0000 5.6931 -13.3848 -0.5056 13.0226 -0.0000 0.0000 23.2664 1.4436 23.7546 -24.5796 0.0000 0.0000 -4.6799 -1.9983 1.0332 13.2129 -6.1594 -0.4066 -14.0631 7.1831 3.5754 -8.9753 -9.3697 -2.8922 -8.5620 20.8234 23.7264 -2.6570 -47.4890 -96.0837 -0.0001 -30.5257 -0.0000 -14.6295 -34.8598 21.0814 -0.0000 0.0000 -0.0000 -0.0000 0.0000 -0.0000 17.7345 -12.9772 -8.3486 -37.9134 41.8332 98.7928 -0.0000 5.3413 0.0000 84.0837 -72.2300 -106.5682 -0.0000 0.0000 -0.0000 -0.0000 0.0000 -0.0000
 1.2153 38.8367 1.3867 -1.6960 -0.5169 -2.1282 5.1349 14.7374 8.0832 13.1581 -0.0000 0.0000 0.5517 -5.1848 -22.4475 -4.9087 0.0000 -0.0000 4.8911 -12.8886 -0.7721 13.6759 -0.0000 0.0000 24.6065 1.0886 23.8167 -24.9245 0.0000 -0.0000 -4.4024 -2.0986 0.9404 13.3411 -6.2775 -0.4478 -13.9179 7.3134 3.5323 -9.4491 -9.2421 -2.9201 -8.6409 20.6746 23.8981 -2.1267 -47.6428 -95.6740 -0.0001 -31.4601 -0.0000 -14.5608 -34.8826 21.3899 -0.0000 0.0000 -0.0000 -0.0000 0.0000 -0.0000 17.6168 -13.1974 -8.5493 -37.8270 41.8697 98.8077 -0.0000 6.6185 0.0000 82.9042 -72.0234 -107.0057 -0.0000 0.0000 -0.0000 -0.0000 0.0000 -0.0000
 1.3865 38.7598 1.3053 -1.5326 -0.7667 -2.2475 4.8058 15.2211 8.0642 12.0717 -0.0000 0.0000 6.7228 -8.1112 -23.3527 -5.0507 -0.0000 0.0000 4.0907 -11.9602 -0.9300 14.7378 -0.0000 0.0000 23.5872 0.4759 23.9501 -24.7807 0.0000 -0.0000 -4.2159 -2.1913 0.9113 13.3947 -6.3965 -0.5127 -13.7695 7.4311 3.6291 -9.7546 -9.1902 -3.3114 -8.6014 20.5773 23.7915 -1.8465 -47.7485 -95.0475 -0.0001 -32.0470 -0.0000 -14.3713 -34.7386 21.1306 -0.0000 -0.0000 0.0000 -0.0000 -0.0000 0.0000 17.6432 -13.3562 -8.6631 -37.7984 41.7850 98.7468 -0.0000 7.5024 0.0000 80.8805 -72.6882 -107.7653 -0.0000 0.0000 -0.0000 -0.0000 0.0000 -0.0000
